C:\GBW_MyPrograms\KinderuniversiteitApp\Resultaten\Ellis_1010\Kleuter\Kleuter_v3.mot
version=1
nRows=6
nColumns=29
inDegrees=yes
endheader
                time	         pelvis_tilt	           pelvis_tx	           pelvis_ty	       hip_flexion_l	       hip_flexion_r	        knee_angle_l	        knee_angle_r	       ankle_angle_l	       ankle_angle_r	    lumbar_extension	hamstrings_r/activation	bifemsh_r/activation	glut_max_r/activation	iliopsoas_r/activation	rect_fem_r/activation	  vasti_r/activation	gastroc_r/activation	 soleus_r/activation	tib_ant_r/activation	hamstrings_l/activation	bifemsh_l/activation	glut_max_l/activation	iliopsoas_l/activation	rect_fem_l/activation	  vasti_l/activation	gastroc_l/activation	 soleus_l/activation	tib_ant_l/activation	
          1.43608923	          1.35828304	          1.30643564	          0.88969052	         24.19395532	        -19.17030472	        -10.78455124	        -13.69526959	         -1.52947922	          7.23274063	         -7.16553193	          0.10457491	          0.10457493	          0.10459213	          0.10457491	          0.10457491	          0.10457489	          0.10457491	          0.10457491	          0.10457491	          0.10457491	          0.10457492	          0.10457487	          0.10457491	          0.10457491	          0.10457492	          0.10457491	          0.10457491	          0.10457491	
          1.45045012	          1.28898077	          1.32192813	          0.89259340	         24.25085636	        -19.04627424	        -12.13232691	        -15.65295039	         -2.32073422	          5.99975152	         -6.93741323	          0.10457491	          0.10457493	          0.10459750	          0.10457491	          0.10457491	          0.10457489	          0.10457491	          0.10457491	          0.10457491	          0.10457491	          0.10457491	          0.10457488	          0.10457491	          0.10457491	          0.10457493	          0.10457491	          0.10457491	          0.10457491	
          1.46481101	          1.15011742	          1.33728915	          0.89393463	         24.29944601	        -18.75683228	        -13.50735121	        -17.88630274	         -3.04351130	          4.43995734	         -6.69783498	          0.10457491	          0.10457492	          0.10460196	          0.10457491	          0.10457491	          0.10457490	          0.10457491	          0.10457491	          0.10457491	          0.10457491	          0.10457488	          0.10457488	          0.10457491	          0.10457491	          0.10457493	          0.10457491	          0.10457491	          0.10457491	
          1.47917190	          1.05962364	          1.35252721	          0.89535348	         24.28263207	        -18.22253043	        -14.97811700	        -20.33945017	         -3.59886866	          2.62950599	         -6.46135640	          0.10457491	          0.10457491	          0.10460056	          0.10457491	          0.10457491	          0.10457490	          0.10457491	          0.10457491	          0.10457491	          0.10457491	          0.10457487	          0.10457487	          0.10457491	          0.10457491	          0.10457493	          0.10457491	          0.10457491	          0.10457491	
          1.49353279	          0.90971666	          1.36764850	          0.89594729	         24.16837327	        -17.48651436	        -16.31421949	        -23.02031901	         -4.08715663	          0.52503239	         -6.20192631	          0.10457491	          0.10457492	          0.10460223	          0.10457491	          0.10457491	          0.10457490	          0.10457491	          0.10457491	          0.10457491	          0.10457491	          0.10457487	          0.10457487	          0.10457491	          0.10457491	          0.10457493	          0.10457491	          0.10457491	          0.10457491	
          1.50789369	          0.77365911	          1.38265057	          0.89632661	         23.95595335	        -16.48633416	        -17.48662272	        -25.88523234	         -4.43553916	         -1.69102407	         -5.91117243	          0.10457491	          0.10457492	          0.10460406	          0.10457491	          0.10457491	          0.10457490	          0.10457491	          0.10457491	          0.10457491	          0.10457491	          0.10457486	          0.10457488	          0.10457491	          0.10457491	          0.10457493	          0.10457491	          0.10457491	          0.10457491	
